<?xml version="1.0" standalone="no"?>
<!DOCTYPE svg PUBLIC "-//W3C//DTD SVG 20010904//EN"
 "http://www.w3.org/TR/2001/REC-SVG-20010904/DTD/svg10.dtd">
<svg version="1.0" xmlns="http://www.w3.org/2000/svg"
 width="512.000000pt" height="512.000000pt" viewBox="0 0 512.000000 512.000000"
 preserveAspectRatio="xMidYMid meet">

<g transform="translate(0.000000,512.000000) scale(0.100000,-0.100000)"
fill="#000000" stroke="none">
<path d="M3420 5073 c-8 -3 -114 -104 -236 -224 l-220 -219 -623 0 c-449 0
-635 -3 -663 -12 -50 -15 -122 -78 -151 -132 -21 -39 -22 -54 -25 -343 l-3
-303 -34 0 c-54 0 -175 -26 -249 -54 -243 -92 -437 -319 -492 -575 -9 -43 -14
-130 -14 -248 l0 -183 -72 -1 c-124 -1 -207 -48 -254 -145 l-29 -59 0 -850 c0
-967 -5 -905 84 -988 63 -59 123 -77 252 -77 l97 0 4 -202 c3 -185 6 -207 26
-253 29 -63 64 -100 127 -133 l50 -27 1745 0 1745 0 60 24 c81 33 163 115 196
196 l24 60 3 2325 c2 1680 0 2336 -8 2363 -20 69 -2 67 -702 66 -343 0 -630
-3 -638 -6z m1170 -2441 l0 -2268 -22 -44 c-60 -117 -214 -130 -294 -24 l-29
37 -5 1081 c-6 1197 0 1110 -71 1191 -19 21 -56 49 -84 61 -47 23 -61 24 -257
24 l-208 0 0 -90 0 -90 189 0 c104 0 197 -3 206 -6 46 -18 45 3 45 -1114 0
-1025 0 -1052 20 -1107 11 -32 20 -59 20 -60 0 -2 -686 -3 -1525 -3 -1659 0
-1567 -3 -1593 55 -8 17 -12 88 -12 205 l0 180 729 0 c793 0 773 -1 849 57 46
35 90 106 98 159 l6 44 394 0 394 0 0 95 0 95 -395 0 -395 0 0 85 0 85 416 0
416 0 145 143 c80 78 151 154 159 169 11 20 14 72 14 213 l0 185 -90 0 -90 0
0 -157 0 -158 -107 -107 -108 -108 -377 0 -378 0 0 85 0 85 364 0 364 0 31 26
31 26 0 571 0 572 265 265 265 266 0 197 0 197 61 0 c54 0 64 3 90 29 l29 29
0 205 0 205 -26 31 -26 31 -214 0 c-287 0 -264 22 -264 -260 l0 -212 29 -29
c26 -25 37 -29 85 -29 l56 0 0 -157 0 -157 -259 -261 c-208 -209 -259 -267
-265 -294 -3 -18 -6 -267 -6 -552 l0 -519 -305 0 -305 0 0 85 0 85 175 0 c187
0 233 9 254 48 8 14 11 231 11 696 l0 676 59 0 c49 0 65 4 88 24 l28 24 0 217
0 217 -28 24 c-28 24 -31 24 -228 24 -230 0 -251 -5 -268 -68 -14 -48 -14
-346 -1 -394 15 -51 42 -68 112 -68 l58 0 0 -620 0 -620 -62 0 c-35 0 -93 3
-130 7 l-68 6 0 192 c0 213 -8 254 -61 318 -52 63 -110 90 -204 95 l-82 4 -6
192 c-6 219 -22 297 -87 426 -98 195 -290 356 -487 409 l-43 12 0 289 0 289
24 28 24 28 658 3 658 2 220 220 221 220 553 0 552 0 0 -2268z m-620 1383 l0
-85 -85 0 -85 0 0 85 0 85 85 0 85 0 0 -85z m-880 -350 l0 -85 -90 0 -90 0 0
85 0 85 90 0 90 0 0 -85z m-1445 -20 c146 -37 289 -138 371 -263 21 -31 51
-95 68 -142 28 -80 30 -96 34 -272 l4 -188 -90 0 -90 0 -4 188 -3 187 -36 76
c-135 282 -499 344 -711 121 -105 -110 -128 -182 -128 -409 l0 -163 -90 0 -90
0 0 148 c1 190 18 283 71 392 77 155 230 280 399 324 73 19 221 20 295 1z
m-28 -363 c52 -27 116 -100 131 -150 7 -23 12 -105 12 -196 l0 -156 -260 0
-260 0 0 156 c0 91 5 173 12 196 21 69 98 143 178 169 42 14 142 3 187 -19z
m-3 -1147 c47 -22 99 -73 122 -118 10 -17 19 -65 22 -104 4 -64 1 -79 -23
-128 -15 -31 -43 -68 -63 -83 -86 -65 -82 -56 -82 -209 0 -152 -8 -179 -54
-202 -42 -20 -87 -4 -108 39 -15 28 -18 61 -18 168 0 148 4 139 -82 204 -20
15 -48 52 -63 83 -23 47 -27 64 -23 122 7 111 54 183 153 230 61 29 157 28
219 -2z"/>
<path d="M3882 4633 l3 -88 88 -3 87 -3 0 91 0 90 -90 0 -91 0 3 -87z"/>
<path d="M4240 4630 l0 -91 88 3 87 3 3 88 3 87 -91 0 -90 0 0 -90z"/>
<path d="M3620 2250 l0 -90 90 0 90 0 0 90 0 90 -90 0 -90 0 0 -90z"/>
<path d="M3620 1015 l0 -96 88 3 87 3 0 90 0 90 -87 3 -88 3 0 -96z"/>
<path d="M4940 3885 l0 -835 90 0 90 0 0 835 0 835 -90 0 -90 0 0 -835z"/>
<path d="M4942 2783 l3 -88 88 -3 87 -3 0 91 0 90 -90 0 -91 0 3 -87z"/>
<path d="M0 1680 l0 -750 90 0 90 0 -2 748 -3 747 -87 3 -88 3 0 -751z"/>
</g>
</svg>
